<svg width="80" height="80" viewBox="0 0 80 80" fill="none" xmlns="http://www.w3.org/2000/svg">
<path d="M40 80C62.0914 80 80 62.0914 80 40C80 17.9086 62.0914 0 40 0C17.9086 0 0 17.9086 0 40C0 62.0914 17.9086 80 40 80Z" fill="#4AA3FF" fill-opacity="0.06"/>
<rect x="13.5972" y="46.7979" width="53.5726" height="32.7832" fill="#4AA3FF"/>
<rect x="13.5972" y="46.7979" width="53.5726" height="32.7832" fill="#4AA3FF"/>
<rect x="28.7895" y="51.5955" width="9.5951" height="9.5951" rx="1" fill="#B5D9FF"/>
<rect x="42.3826" y="51.5955" width="9.5951" height="9.5951" rx="1" fill="#B5D9FF"/>
<rect x="28.7895" y="65.1885" width="9.5951" height="9.5951" rx="1" fill="#B5D9FF"/>
<rect x="42.3826" y="65.1885" width="9.5951" height="9.5951" rx="1" fill="#B5D9FF"/>
<path d="M40.3835 24.4094L67.0435 47.1977H13.7236L40.3835 24.4094Z" fill="#4AA3FF"/>
<path fill-rule="evenodd" clip-rule="evenodd" d="M69.0854 48.6455C71.8036 48.6455 73.0366 45.2487 70.9512 43.505L43.2073 20.3073C41.3508 18.7551 38.6492 18.7551 36.7927 20.3073L9.04876 43.505C6.96342 45.2487 8.1964 48.6455 10.9147 48.6455C11.5968 48.6455 12.2572 48.4057 12.7805 47.9682L36.7927 27.8907C38.6492 26.3385 41.3508 26.3385 43.2073 27.8907L67.2195 47.9682C67.7428 48.4057 68.4032 48.6455 69.0854 48.6455Z" fill="#007AF8"/>
<path d="M51.6903 6.9556C50.1512 5.32707 48.2839 4.04395 46.2118 3.19111C44.1397 2.33828 41.9101 1.93517 39.6706 2.00847C37.431 2.08177 35.2326 2.62979 33.2207 3.61629C31.2088 4.60278 29.4293 6.00526 28 7.73093L30.0803 9.45399C31.2657 8.02288 32.7414 6.85977 34.4099 6.04165C36.0784 5.22353 37.9016 4.76904 39.7589 4.70825C41.6162 4.64748 43.4652 4.98178 45.1836 5.68906C46.902 6.39632 48.4507 7.46043 49.7271 8.811L51.6903 6.9556Z" fill="#FF9800"/>
<path d="M48.4785 10.8603C47.4364 9.61984 46.1289 8.6291 44.653 7.96107C43.1769 7.29303 41.5698 6.96473 39.95 7.00036C38.3302 7.036 36.7391 7.43465 35.2938 8.16695C33.8486 8.89925 32.5861 9.94652 31.5994 11.2316L33.6195 12.7826C34.3741 11.7998 35.3397 10.9988 36.445 10.4388C37.5503 9.8787 38.7672 9.57381 40.006 9.54655C41.2448 9.51932 42.474 9.77039 43.6028 10.2813C44.7317 10.7922 45.7316 11.5499 46.5286 12.4986L48.4785 10.8603Z" fill="#FF9800"/>
<path d="M44.3529 14.2202C43.8386 13.5057 43.1934 12.9351 42.4651 12.5503C41.7367 12.1656 40.9436 11.9765 40.1442 11.997C39.3449 12.0175 38.5597 12.2472 37.8465 12.6689C37.1333 13.0907 36.5103 13.6939 36.0234 14.434L37.0202 15.3273C37.3926 14.7613 37.8691 14.3 38.4146 13.9774C38.96 13.6548 39.5605 13.4792 40.1719 13.4635C40.7832 13.4478 41.3898 13.5924 41.9468 13.8867C42.5039 14.181 42.9974 14.6174 43.3907 15.1638L44.3529 14.2202Z" fill="#FF9800"/>
</svg>
