<svg width="80" height="80" viewBox="0 0 80 80" fill="none" xmlns="http://www.w3.org/2000/svg">
<path d="M40 80C62.0914 80 80 62.0914 80 40C80 17.9086 62.0914 0 40 0C17.9086 0 0 17.9086 0 40C0 62.0914 17.9086 80 40 80Z" fill="#4AA3FF" fill-opacity="0.06"/>
<path d="M69.39 31.4427C65.7315 27.2714 61.2291 23.9246 56.1805 21.6236C51.1316 19.3226 45.6519 18.12 40.1036 18.0952C34.5554 18.0704 29.0651 19.2241 23.9961 21.4799C18.927 23.7357 14.3948 27.0422 10.6992 31.1806L15.6881 35.6357C18.7529 32.2036 22.5116 29.4615 26.7154 27.5907C30.9193 25.7199 35.4725 24.7631 40.0738 24.7837C44.675 24.8042 49.2195 25.8016 53.4064 27.7099C57.5933 29.6181 61.3273 32.3937 64.3613 35.8531L69.39 31.4427Z" fill="#FF9800"/>
<path d="M61.0833 40.8089C58.6187 37.6436 55.4749 35.0718 51.8841 33.283C48.2933 31.4941 44.3469 30.5338 40.3356 30.4729C36.3243 30.412 32.3505 31.2519 28.707 32.9309C25.0635 34.6099 21.8432 37.085 19.2834 40.174L24.1391 44.1978C26.0968 41.8354 28.5597 39.9423 31.3462 38.6582C34.1328 37.3742 37.172 36.7317 40.2398 36.7783C43.3076 36.825 46.3259 37.5593 49.0722 38.9275C51.8185 40.2956 54.2229 42.2625 56.1076 44.6833L61.0833 40.8089Z" fill="#FF9800"/>
<path d="M50.5656 48.7428C49.3588 46.9277 47.8149 45.4564 46.048 44.4373C44.2811 43.4182 42.336 42.8773 40.3563 42.8545C38.3765 42.8317 36.4125 43.3276 34.6089 44.3056C32.8054 45.2836 31.2082 46.7187 29.9353 48.5053L32.3197 50.8075C33.2932 49.4411 34.5147 48.3435 35.8941 47.5955C37.2735 46.8476 38.7755 46.4683 40.2897 46.4858C41.8038 46.5032 43.2913 46.9169 44.6427 47.6963C45.9941 48.4757 47.1749 49.6009 48.0977 50.9892L50.5656 48.7428Z" fill="#FF9800"/>
<circle cx="40" cy="54" r="3" fill="#FF9800"/>
<path d="M40 41.5353C49.0734 38.0311 54.1034 38.281 63 41.5353V60.3073L51.5 65L40 60.3073V41.5353Z" fill="#4AA3FF"/>
<line x1="43.9662" y1="54.0417" x2="48.5646" y2="58.03" stroke="#FEFEFE" stroke-width="2" stroke-linecap="round"/>
<line x1="48.5521" y1="58.031" x2="57.6657" y2="47.3349" stroke="#FEFEFE" stroke-width="2" stroke-linecap="round"/>
</svg>
